<svg height="512pt" viewBox="0 -16 512 512" width="512pt" xmlns="http://www.w3.org/2000/svg" xmlns:xlink="http://www.w3.org/1999/xlink"><linearGradient id="a" gradientUnits="userSpaceOnUse" x1="0" x2="512" y1="240" y2="240"><stop offset="0" stop-color="#80d8ff"/><stop offset="1" stop-color="#ea80fc"/></linearGradient><path d="m452.019531 88.328125h-38.140625c2.839844-7.175781 4.417969-14.984375 4.417969-23.15625v-2.015625c0-34.824219-28.351563-63.15625-63.199219-63.15625-17.828125 0-34.914062 7.582031-46.875 20.800781l-52.222656 57.71875-52.222656-57.722656c-11.960938-13.214844-29.046875-20.796875-46.875-20.796875-34.847656 0-63.199219 28.332031-63.199219 63.15625v2.015625c0 8.171875 1.578125 15.980469 4.417969 23.15625h-38.140625c-33.074219 0-59.980469 26.90625-59.980469 59.980469v55.929687c0 11.046875 8.953125 20 20 20h16v235.761719c0 11.046875 8.953125 20 20 20h400c11.046875 0 20-8.953125 20-20v-235.761719h16c11.046875 0 20-8.953125 20-20v-55.929687c0-33.074219-26.90625-59.980469-59.980469-59.980469zm19.980469 59.980469v35.929687c-11.21875 0-184.386719 0-196 0v-55.910156h176.019531c11.015625 0 19.980469 8.960937 19.980469 19.980469zm-134.113281-100.671875c4.386719-4.855469 10.664062-7.636719 17.210937-7.636719 12.792969 0 23.199219 10.386719 23.199219 23.15625v2.015625c0 12.765625-10.40625 23.15625-23.199219 23.15625h-54.03125zm-204.183594 17.535156v-2.015625c0-12.769531 10.40625-23.15625 23.199219-23.15625 6.546875 0 12.824218 2.78125 17.210937 7.636719l36.820313 40.691406h-54.03125c-12.792969 0-23.199219-10.390625-23.199219-23.15625zm-93.703125 83.136719c0-11.019532 8.964844-19.980469 19.980469-19.980469h176.019531v55.910156c-11.613281 0-184.78125 0-196 0zm36 75.929687h160v215.761719h-160zm360 215.761719h-160v-215.761719h160zm0 0" fill="url(#a)"/></svg>